<svg xmlns="http://www.w3.org/2000/svg" xmlns:xlink="http://www.w3.org/1999/xlink" width="600" zoomAndPan="magnify" viewBox="0 0 450 449.999984" height="600" preserveAspectRatio="xMidYMid meet" version="1.0"><defs><g/><clipPath id="8f34463539"><path d="M 418.042969 88.46875 L 443.378906 88.46875 L 443.378906 105 L 418.042969 105 Z M 418.042969 88.46875 " clip-rule="nonzero"/></clipPath><clipPath id="4c24169348"><path d="M 45 108 L 122 108 L 122 137.75 L 45 137.75 Z M 45 108 " clip-rule="nonzero"/></clipPath><clipPath id="f61ebcd2b4"><path d="M 44 107 L 122 107 L 122 137.75 L 44 137.75 Z M 44 107 " clip-rule="nonzero"/></clipPath><clipPath id="c53af63ae1"><path d="M 328 108 L 405 108 L 405 137.75 L 328 137.75 Z M 328 108 " clip-rule="nonzero"/></clipPath><clipPath id="d4236e776e"><path d="M 328 107 L 405 107 L 405 137.75 L 328 137.75 Z M 328 107 " clip-rule="nonzero"/></clipPath><clipPath id="15c95e0a5a"><path d="M 225 98 L 228 98 L 228 137.75 L 225 137.75 Z M 225 98 " clip-rule="nonzero"/></clipPath><clipPath id="786cd982fe"><path d="M 225.363281 97.324219 L 227.964844 97.324219 L 227.964844 137.75 L 225.363281 137.75 Z M 225.363281 97.324219 " clip-rule="nonzero"/></clipPath><clipPath id="16d0e270e5"><rect x="0" width="77" y="0" height="144"/></clipPath><clipPath id="b12d2aeda7"><path d="M 8 9 L 93.839844 9 L 93.839844 104 L 8 104 Z M 8 9 " clip-rule="nonzero"/></clipPath><clipPath id="0ab69693aa"><rect x="0" width="94" y="0" height="144"/></clipPath><clipPath id="d6aca7e642"><rect x="0" width="77" y="0" height="144"/></clipPath><clipPath id="a17a311556"><rect x="0" width="79" y="0" height="145"/></clipPath><clipPath id="0d99dca062"><rect x="0" width="105" y="0" height="196"/></clipPath><clipPath id="925a969364"><rect x="0" width="119" y="0" height="192"/></clipPath><clipPath id="095e5ed75a"><rect x="0" width="79" y="0" height="143"/></clipPath><clipPath id="a98d0c85b8"><rect x="0" width="57" y="0" height="143"/></clipPath><clipPath id="52a6bafafa"><rect x="0" width="60" y="0" height="143"/></clipPath></defs><path fill="#f5f6f5" d="M 17.859375 116.339844 L 29.976562 113.429688 L 28.265625 114.019531 L 50.671875 100.328125 L 50.6875 100.320312 C 50.765625 100.269531 50.867188 100.300781 50.914062 100.382812 C 50.957031 100.464844 50.9375 100.5625 50.867188 100.613281 L 30.074219 116.65625 C 30.046875 116.683594 30.011719 116.691406 29.976562 116.691406 L 17.859375 116.691406 C 17.765625 116.691406 17.691406 116.613281 17.691406 116.519531 C 17.691406 116.433594 17.746094 116.367188 17.820312 116.347656 L 17.859375 116.339844 " fill-opacity="1" fill-rule="nonzero"/><g clip-path="url(#8f34463539)"><path fill="#ffffff" d="M 443.375 104.324219 C 443.359375 104.507812 443.210938 104.640625 443.046875 104.640625 C 440.539062 104.640625 438.039062 104.238281 435.640625 103.453125 C 433.246094 102.667969 430.972656 101.519531 428.855469 100.105469 C 426.742188 98.695312 424.785156 97.023438 423.007812 95.179688 C 422.046875 94.179688 421.132812 93.136719 420.277344 92.050781 C 419.929688 91.617188 419.597656 91.171875 419.277344 90.71875 C 418.898438 90.195312 418.535156 89.65625 418.1875 89.105469 L 418.1875 89.097656 C 418.089844 88.933594 418.136719 88.714844 418.296875 88.609375 C 418.351562 88.574219 418.410156 88.558594 418.46875 88.558594 L 443.046875 88.558594 C 443.226562 88.558594 443.378906 88.714844 443.378906 88.914062 C 443.378906 89.089844 443.246094 89.238281 443.082031 89.257812 L 443.046875 89.265625 L 423.859375 91.609375 C 424.214844 92.097656 424.582031 92.585938 424.957031 93.0625 C 426.449219 94.949219 428.117188 96.707031 429.972656 98.234375 C 431.820312 99.765625 433.851562 101.074219 436.046875 102.054688 C 438.242188 103.039062 440.605469 103.675781 443.046875 103.933594 L 443.082031 103.941406 C 443.261719 103.960938 443.394531 104.132812 443.375 104.324219 " fill-opacity="1" fill-rule="nonzero"/></g><path fill="#ffffff" d="M 433.628906 37.59375 L 433.5 38.871094 C 433.214844 41.722656 430.648438 43.78125 427.800781 43.457031 C 415.257812 42.035156 402.585938 40.847656 389.957031 39.761719 C 375.570312 38.539062 361.167969 37.496094 346.757812 36.628906 C 317.933594 34.890625 289.066406 33.84375 260.199219 33.648438 C 252.992188 33.597656 245.730469 33.589844 238.570312 33.675781 C 231.4375 33.800781 224.304688 34.226562 217.214844 34.996094 C 203.03125 36.542969 188.976562 39.472656 175.425781 44.117188 C 161.882812 48.746094 148.839844 55.109375 136.941406 63.375 C 130.988281 67.507812 125.332031 72.109375 120.09375 77.199219 C 117.476562 79.746094 114.96875 82.40625 112.609375 85.203125 C 112.382812 85.472656 112.15625 85.742188 111.933594 86.011719 C 111.398438 86.039062 110.871094 86.066406 110.339844 86.097656 C 109.738281 86.128906 109.132812 86.160156 108.511719 86.195312 C 109.234375 85.257812 109.964844 84.347656 110.707031 83.441406 C 113.101562 80.546875 115.644531 77.785156 118.292969 75.152344 C 123.589844 69.894531 129.3125 65.132812 135.339844 60.839844 C 147.394531 52.269531 160.621094 45.636719 174.367188 40.753906 C 188.113281 35.867188 202.390625 32.726562 216.78125 30.992188 C 223.988281 30.121094 231.21875 29.613281 238.460938 29.398438 C 245.703125 29.230469 252.941406 29.160156 260.179688 29.117188 C 289.132812 28.988281 318.078125 29.710938 347 31.121094 C 361.457031 31.828125 375.914062 32.714844 390.347656 33.773438 C 404.792969 34.84375 419.222656 36.054688 433.628906 37.59375 " fill-opacity="1" fill-rule="nonzero"/><g clip-path="url(#4c24169348)"><path fill="#ffffff" d="M 121.371094 137.03125 C 114.03125 122.429688 99.71875 112.523438 83.261719 112.523438 C 66.808594 112.523438 52.496094 122.429688 45.152344 137.03125 C 52.007812 119.929688 66.5 108.132812 83.261719 108.132812 C 100.023438 108.132812 114.515625 119.929688 121.371094 137.03125 " fill-opacity="1" fill-rule="nonzero"/></g><g clip-path="url(#f61ebcd2b4)"><path fill="#ffffff" d="M 83.261719 112.347656 C 98.03125 112.347656 111.683594 120.414062 119.6875 133.636719 C 112.183594 118.132812 98.222656 108.3125 83.261719 108.3125 C 68.300781 108.3125 54.339844 118.132812 46.832031 133.636719 C 54.835938 120.414062 68.492188 112.347656 83.261719 112.347656 Z M 121.371094 137.207031 C 121.3125 137.207031 121.253906 137.171875 121.226562 137.113281 C 113.652344 122.058594 99.105469 112.703125 83.261719 112.703125 C 67.417969 112.703125 52.871094 122.058594 45.300781 137.113281 C 45.257812 137.199219 45.160156 137.234375 45.078125 137.191406 C 45 137.148438 44.964844 137.046875 45 136.960938 C 48.429688 128.402344 53.753906 121.164062 60.394531 116.027344 C 67.21875 110.75 75.125 107.957031 83.261719 107.957031 C 91.398438 107.957031 99.304688 110.75 106.128906 116.027344 C 112.757812 121.152344 118.074219 128.378906 121.507812 136.914062 C 121.53125 136.945312 121.546875 136.984375 121.546875 137.03125 C 121.546875 137.128906 121.472656 137.207031 121.382812 137.207031 C 121.378906 137.207031 121.375 137.207031 121.371094 137.207031 " fill-opacity="1" fill-rule="nonzero"/></g><g clip-path="url(#c53af63ae1)"><path fill="#ffffff" d="M 404.402344 137.03125 C 397.058594 122.429688 382.75 112.523438 366.292969 112.523438 C 349.835938 112.523438 335.527344 122.429688 328.183594 137.03125 C 335.039062 119.929688 349.53125 108.132812 366.292969 108.132812 C 383.054688 108.132812 397.546875 119.929688 404.402344 137.03125 " fill-opacity="1" fill-rule="nonzero"/></g><g clip-path="url(#d4236e776e)"><path fill="#ffffff" d="M 366.292969 112.347656 C 381.066406 112.347656 394.714844 120.414062 402.722656 133.636719 C 395.214844 118.136719 381.253906 108.3125 366.292969 108.3125 C 351.332031 108.3125 337.367188 118.136719 329.863281 133.636719 C 337.871094 120.414062 351.523438 112.347656 366.292969 112.347656 Z M 404.402344 137.207031 C 404.34375 137.207031 404.285156 137.171875 404.257812 137.113281 C 396.683594 122.058594 382.136719 112.703125 366.292969 112.703125 C 350.449219 112.703125 335.90625 122.058594 328.328125 137.113281 C 328.289062 137.199219 328.191406 137.234375 328.109375 137.191406 C 328.03125 137.148438 327.992188 137.046875 328.027344 136.960938 C 331.460938 128.402344 336.785156 121.164062 343.425781 116.027344 C 350.25 110.75 358.15625 107.957031 366.292969 107.957031 C 374.429688 107.957031 382.339844 110.75 389.160156 116.027344 C 395.789062 121.152344 401.105469 128.378906 404.539062 136.914062 C 404.5625 136.945312 404.582031 136.984375 404.582031 137.03125 C 404.582031 137.128906 404.496094 137.191406 404.40625 137.207031 C 404.40625 137.207031 404.40625 137.207031 404.402344 137.207031 " fill-opacity="1" fill-rule="nonzero"/></g><path fill="#ffffff" d="M 429.742188 46.332031 C 429.660156 46.566406 421.046875 69.738281 426.835938 75.125 C 426.894531 75.152344 426.929688 75.214844 426.929688 75.289062 C 426.929688 75.378906 426.855469 75.464844 426.761719 75.464844 L 412.578125 75.464844 C 412.519531 75.464844 412.464844 75.429688 412.433594 75.371094 C 412.40625 75.3125 412.40625 75.246094 412.4375 75.1875 L 429.449219 46.167969 C 429.496094 46.089844 429.589844 46.0625 429.664062 46.105469 C 429.742188 46.148438 429.777344 46.246094 429.742188 46.332031 " fill-opacity="1" fill-rule="nonzero"/><path fill="#ffffff" d="M 231.953125 79.882812 C 231.953125 79.980469 231.878906 80.058594 231.792969 80.0625 L 222.671875 80.417969 C 222.671875 80.417969 222.671875 80.417969 222.667969 80.417969 C 222.617188 80.417969 222.566406 80.390625 222.539062 80.347656 C 222.503906 80.304688 222.492188 80.25 222.503906 80.191406 L 234.179688 36.71875 C 234.207031 36.628906 234.292969 36.578125 234.375 36.589844 C 234.460938 36.613281 234.519531 36.699219 234.507812 36.789062 C 234.480469 37.015625 231.621094 59.257812 231.953125 79.882812 " fill-opacity="1" fill-rule="nonzero"/><path fill="#ffffff" d="M 334.003906 76.980469 C 334.003906 77.078125 333.9375 77.15625 333.84375 77.15625 L 326.171875 77.476562 C 326.164062 77.476562 326.164062 77.476562 326.164062 77.476562 C 326.113281 77.476562 326.066406 77.445312 326.03125 77.402344 C 325.996094 77.363281 325.984375 77.304688 325.996094 77.25 L 335.832031 38.777344 C 335.859375 38.695312 335.9375 38.636719 336.023438 38.652344 C 336.113281 38.671875 336.171875 38.757812 336.160156 38.847656 C 336.132812 39.046875 333.722656 58.726562 334.003906 76.980469 " fill-opacity="1" fill-rule="nonzero"/><g clip-path="url(#15c95e0a5a)"><path fill="#ffffff" d="M 227.5625 98.109375 C 227.5625 98.109375 224.445312 110.679688 226.449219 137.625 L 227.5625 98.109375 " fill-opacity="1" fill-rule="nonzero"/></g><g clip-path="url(#786cd982fe)"><path fill="#ffffff" d="M 227.089844 103 C 226.453125 107.992188 225.757812 116.921875 226.328125 129.996094 Z M 226.449219 137.980469 C 226.273438 137.980469 226.128906 137.835938 226.113281 137.652344 C 224.132812 110.957031 227.207031 98.148438 227.238281 98.019531 C 227.28125 97.84375 227.441406 97.738281 227.609375 97.761719 C 227.777344 97.785156 227.898438 97.9375 227.894531 98.121094 L 226.78125 137.636719 C 226.777344 137.824219 226.632812 137.972656 226.457031 137.980469 C 226.453125 137.980469 226.449219 137.980469 226.449219 137.980469 " fill-opacity="1" fill-rule="nonzero"/></g><path fill="#ffffff" d="M 329.1875 92.804688 C 329.1875 92.804688 328.964844 110.421875 318.734375 131.148438 L 329.1875 92.804688 " fill-opacity="1" fill-rule="nonzero"/><path fill="#ffffff" d="M 328.628906 96.136719 L 320.070312 127.515625 C 326.242188 113.761719 328.082031 101.734375 328.628906 96.136719 Z M 318.734375 131.503906 C 318.695312 131.503906 318.652344 131.492188 318.613281 131.476562 C 318.453125 131.410156 318.367188 131.222656 318.417969 131.050781 L 328.867188 92.703125 C 328.914062 92.535156 329.074219 92.425781 329.234375 92.453125 C 329.402344 92.480469 329.523438 92.632812 329.519531 92.808594 C 329.519531 92.984375 329.179688 110.75 319.03125 131.3125 C 318.972656 131.429688 318.855469 131.503906 318.734375 131.503906 " fill-opacity="1" fill-rule="nonzero"/><path fill="#ffffff" d="M 135.542969 84.835938 C 135.4375 84.835938 135.324219 84.84375 135.210938 84.851562 C 131.734375 85.011719 128.25 85.183594 124.769531 85.351562 C 122.480469 85.464844 120.195312 85.578125 117.90625 85.699219 C 117.785156 85.707031 117.671875 85.714844 117.550781 85.71875 C 117.429688 85.71875 117.3125 85.726562 117.191406 85.734375 C 117.550781 84.339844 118.25 82.640625 119.613281 81.015625 C 122.441406 77.632812 127.09375 75.746094 133.4375 75.417969 C 133.542969 75.398438 133.644531 75.457031 133.710938 75.542969 C 133.769531 75.621094 135.183594 77.507812 135.542969 84.835938 " fill-opacity="1" fill-rule="nonzero"/><path fill="#ffffff" d="M 441.933594 77.941406 L 441.933594 80.578125 C 441.933594 83.117188 439.867188 85.171875 437.332031 85.15625 C 434.578125 85.140625 431.820312 85.132812 429.054688 85.132812 C 424.175781 85.132812 419.285156 85.15625 414.402344 85.175781 L 386.785156 85.394531 C 368.375 85.578125 349.960938 85.828125 331.542969 86.105469 C 294.710938 86.667969 257.878906 87.363281 221.050781 88.226562 C 184.226562 89.105469 147.394531 90.066406 110.605469 91.609375 C 109.59375 91.652344 108.578125 91.703125 107.566406 91.746094 C 106.550781 91.785156 105.542969 91.835938 104.53125 91.886719 C 97.363281 92.210938 90.199219 92.574219 83.054688 93.03125 C 73.929688 93.625 64.820312 94.570312 55.8125 96.089844 C 46.828125 97.628906 37.898438 99.707031 29.410156 102.984375 C 25.1875 104.632812 21.0625 106.585938 17.3125 109.09375 C 15.441406 110.339844 13.671875 111.734375 12.105469 113.304688 C 11.332031 114.089844 10.601562 114.925781 9.976562 115.800781 C 9.664062 116.242188 9.375 116.6875 9.121094 117.140625 C 9.121094 117.140625 9.121094 117.144531 9.117188 117.148438 C 8.734375 117.847656 7.933594 118.203125 7.167969 117.988281 L 6.640625 117.84375 C 7.019531 116.574219 7.65625 115.535156 8.347656 114.523438 C 9.042969 113.523438 9.832031 112.597656 10.664062 111.734375 C 12.339844 110.011719 14.207031 108.519531 16.15625 107.179688 C 20.054688 104.515625 24.28125 102.453125 28.597656 100.703125 C 37.257812 97.25 46.296875 95.042969 55.382812 93.371094 C 64.472656 91.730469 73.65625 90.675781 82.847656 89.96875 C 90.847656 89.359375 98.851562 88.871094 106.855469 88.417969 C 107.953125 88.363281 109.050781 88.296875 110.148438 88.234375 C 110.246094 88.234375 110.339844 88.226562 110.441406 88.21875 C 112.574219 88.109375 114.703125 87.992188 116.835938 87.886719 C 116.953125 87.875 117.066406 87.875 117.179688 87.875 C 117.289062 87.859375 117.40625 87.851562 117.519531 87.851562 C 118.980469 87.773438 120.445312 87.695312 121.910156 87.625 C 122.273438 87.601562 122.636719 87.582031 123 87.570312 C 123.261719 87.554688 123.523438 87.539062 123.78125 87.527344 C 156.148438 85.914062 188.527344 84.703125 220.90625 83.539062 C 257.730469 82.257812 294.5625 81.125 331.402344 80.136719 C 349.820312 79.640625 368.242188 79.1875 386.660156 78.785156 C 405.082031 78.402344 423.5 77.996094 441.933594 77.941406 " fill-opacity="1" fill-rule="nonzero"/><g transform="matrix(1, 0, 0, 1, 110, 146)"><g clip-path="url(#16d0e270e5)"><g fill="#ffffff" fill-opacity="1"><g transform="translate(1.124302, 103.062858)"><g><path d="M 12.34375 -6.9375 C 5.863281 -12.707031 2.625 -20.101562 2.625 -29.125 C 2.625 -38.15625 6 -45.570312 12.75 -51.375 C 19.5 -57.1875 27.84375 -60.09375 37.78125 -60.09375 C 47.570312 -60.09375 55.820312 -57.171875 62.53125 -51.328125 C 69.25 -45.484375 72.609375 -38.082031 72.609375 -29.125 C 72.609375 -20.175781 69.328125 -12.800781 62.765625 -7 C 56.203125 -1.195312 47.875 1.703125 37.78125 1.703125 C 27.3125 1.703125 18.832031 -1.175781 12.34375 -6.9375 Z M 27.9375 -39.03125 C 25.320312 -36.457031 24.015625 -33.160156 24.015625 -29.140625 C 24.015625 -25.117188 25.265625 -21.835938 27.765625 -19.296875 C 30.273438 -16.753906 33.578125 -15.484375 37.671875 -15.484375 C 41.617188 -15.484375 44.863281 -16.769531 47.40625 -19.34375 C 49.945312 -21.925781 51.21875 -25.191406 51.21875 -29.140625 C 51.21875 -33.160156 49.90625 -36.457031 47.28125 -39.03125 C 44.664062 -41.613281 41.460938 -42.90625 37.671875 -42.90625 C 33.804688 -42.90625 30.5625 -41.613281 27.9375 -39.03125 Z M 27.9375 -39.03125 "/></g></g></g></g></g><g transform="matrix(1, 0, 0, 1, 24, 146)"><g clip-path="url(#0ab69693aa)"><g clip-path="url(#b12d2aeda7)"><g fill="#ffffff" fill-opacity="1"><g transform="translate(1.235477, 103.062858)"><g><path d="M 92.296875 0 L 62.828125 0 L 28.21875 -39.828125 L 28.21875 0 L 6.828125 0 L 6.828125 -93.890625 L 28.21875 -93.890625 L 28.21875 -55.546875 L 60.4375 -93.890625 L 86.390625 -93.890625 L 48.59375 -49.390625 Z M 92.296875 0 "/></g></g></g></g></g></g><g transform="matrix(1, 0, 0, 1, 358, 146)"><g clip-path="url(#d6aca7e642)"><g fill="#ffffff" fill-opacity="1"><g transform="translate(0.779484, 103.062858)"><g><path d="M 6.828125 0 L 6.828125 -58.390625 L 26.96875 -58.390625 L 26.96875 -52.234375 L 27.203125 -52.234375 C 32.429688 -57.472656 38.007812 -60.09375 43.9375 -60.09375 C 46.8125 -60.09375 49.671875 -59.710938 52.515625 -58.953125 C 55.367188 -58.191406 58.101562 -57.015625 60.71875 -55.421875 C 63.332031 -53.828125 65.457031 -51.566406 67.09375 -48.640625 C 68.726562 -45.722656 69.546875 -42.332031 69.546875 -38.46875 L 69.546875 0 L 49.390625 0 L 49.390625 -33 C 49.390625 -36.039062 48.421875 -38.695312 46.484375 -40.96875 C 44.554688 -43.25 42.035156 -44.390625 38.921875 -44.390625 C 35.890625 -44.390625 33.140625 -43.210938 30.671875 -40.859375 C 28.203125 -38.503906 26.96875 -35.882812 26.96875 -33 L 26.96875 0 Z M 6.828125 0 "/></g></g></g></g></g><g transform="matrix(1, 0, 0, 1, 178, 146)"><g clip-path="url(#a17a311556)"><g fill="#ffffff" fill-opacity="1"><g transform="translate(1.035197, 103.731053)"><g><path d="M 74.03125 -58.796875 L 46.078125 -30.71875 L 76.78125 0 L 50.65625 0 L 27.15625 -23.5 L 27.15625 0 L 6.875 0 L 6.875 -98.5625 L 27.15625 -98.5625 L 27.15625 -38.28125 L 47.671875 -58.796875 Z M 74.03125 -58.796875 "/></g></g></g></g></g><g transform="matrix(1, 0, 0, 1, 252, 106)"><g clip-path="url(#0d99dca062)"><g fill="#ffffff" fill-opacity="1"><g transform="translate(1.05237, 140.775616)"><g><path d="M 16.96875 -9.546875 C 8.050781 -17.472656 3.59375 -27.640625 3.59375 -40.046875 C 3.59375 -52.460938 8.234375 -62.660156 17.515625 -70.640625 C 26.804688 -78.617188 38.285156 -82.609375 51.953125 -82.609375 C 65.398438 -82.609375 76.738281 -78.59375 85.96875 -70.5625 C 95.207031 -62.53125 99.828125 -52.359375 99.828125 -40.046875 C 99.828125 -27.742188 95.316406 -17.601562 86.296875 -9.625 C 77.273438 -1.644531 65.828125 2.34375 51.953125 2.34375 C 37.554688 2.34375 25.894531 -1.617188 16.96875 -9.546875 Z M 38.40625 -53.65625 C 34.8125 -50.113281 33.015625 -45.578125 33.015625 -40.046875 C 33.015625 -34.523438 34.734375 -30.015625 38.171875 -26.515625 C 41.617188 -23.023438 46.160156 -21.28125 51.796875 -21.28125 C 57.210938 -21.28125 61.664062 -23.050781 65.15625 -26.59375 C 68.65625 -30.144531 70.40625 -34.632812 70.40625 -40.0625 C 70.40625 -45.582031 68.601562 -50.113281 65 -53.65625 C 61.40625 -57.207031 57.003906 -58.984375 51.796875 -58.984375 C 46.472656 -58.984375 42.007812 -57.207031 38.40625 -53.65625 Z M 38.40625 -53.65625 "/></g></g></g></g></g><g transform="matrix(1, 0, 0, 1, 79, 258)"><g clip-path="url(#925a969364)"><g fill="#ffffff" fill-opacity="1"><g transform="translate(0.542143, 140.8178)"><g><path d="M 77.796875 -26.5 C 82.265625 -26.5 86.601562 -27.175781 90.8125 -28.53125 C 95.019531 -29.882812 98.113281 -31.179688 100.09375 -32.421875 L 103.046875 -34.453125 L 115.53125 -9.515625 C 115.113281 -9.203125 114.539062 -8.785156 113.8125 -8.265625 C 113.082031 -7.742188 111.390625 -6.78125 108.734375 -5.375 C 106.085938 -3.976562 103.253906 -2.757812 100.234375 -1.71875 C 97.222656 -0.675781 93.273438 0.257812 88.390625 1.09375 C 83.515625 1.925781 78.476562 2.34375 73.28125 2.34375 C 61.320312 2.34375 49.988281 -0.59375 39.28125 -6.46875 C 28.582031 -12.34375 19.957031 -20.421875 13.40625 -30.703125 C 6.851562 -40.992188 3.578125 -52.117188 3.578125 -64.078125 C 3.578125 -73.117188 5.5 -81.796875 9.34375 -90.109375 C 13.195312 -98.429688 18.316406 -105.550781 24.703125 -111.46875 C 31.097656 -117.394531 38.554688 -122.125 47.078125 -125.65625 C 55.609375 -129.195312 64.34375 -130.96875 73.28125 -130.96875 C 81.59375 -130.96875 89.253906 -129.976562 96.265625 -128 C 103.285156 -126.019531 108.25 -124.046875 111.15625 -122.078125 L 115.53125 -119.109375 L 103.046875 -94.171875 C 102.328125 -94.796875 101.238281 -95.546875 99.78125 -96.421875 C 98.320312 -97.304688 95.410156 -98.476562 91.046875 -99.9375 C 86.679688 -101.394531 82.265625 -102.125 77.796875 -102.125 C 70.734375 -102.125 64.394531 -100.976562 58.78125 -98.6875 C 53.164062 -96.40625 48.71875 -93.390625 45.4375 -89.640625 C 42.164062 -85.898438 39.671875 -81.875 37.953125 -77.5625 C 36.242188 -73.25 35.390625 -68.859375 35.390625 -64.390625 C 35.390625 -54.617188 39.050781 -45.859375 46.375 -38.109375 C 53.707031 -30.367188 64.179688 -26.5 77.796875 -26.5 Z M 77.796875 -26.5 "/></g></g></g></g></g><g transform="matrix(1, 0, 0, 1, 194, 294)"><g clip-path="url(#095e5ed75a)"><g fill="#ffffff" fill-opacity="1"><g transform="translate(0.830755, 102.84673)"><g><path d="M 10.765625 -7.1875 C 5.328125 -13.125 2.609375 -20.398438 2.609375 -29.015625 C 2.609375 -37.640625 5.328125 -44.9375 10.765625 -50.90625 C 16.210938 -56.882812 23.128906 -59.875 31.515625 -59.875 C 39.234375 -59.875 45.585938 -57.453125 50.578125 -52.609375 L 50.578125 -58.171875 L 70.640625 -58.171875 L 70.640625 0 L 50.796875 0 L 50.796875 -6.578125 L 50.578125 -6.578125 C 45.585938 -1.054688 39.234375 1.703125 31.515625 1.703125 C 23.128906 1.703125 16.210938 -1.257812 10.765625 -7.1875 Z M 27.828125 -38.890625 C 25.222656 -36.316406 23.921875 -33.023438 23.921875 -29.015625 C 23.921875 -25.015625 25.164062 -21.75 27.65625 -19.21875 C 30.15625 -16.6875 33.445312 -15.421875 37.53125 -15.421875 C 41.457031 -15.421875 44.6875 -16.703125 47.21875 -19.265625 C 49.757812 -21.835938 51.03125 -25.09375 51.03125 -29.03125 C 51.03125 -33.03125 49.722656 -36.316406 47.109375 -38.890625 C 44.503906 -41.460938 41.3125 -42.75 37.53125 -42.75 C 33.675781 -42.75 30.441406 -41.460938 27.828125 -38.890625 Z M 27.828125 -38.890625 "/></g></g></g></g></g><g transform="matrix(1, 0, 0, 1, 332, 294)"><g clip-path="url(#a98d0c85b8)"><g fill="#ffffff" fill-opacity="1"><g transform="translate(0.497524, 102.846877)"><g><path d="M 32.09375 -59.875 C 35.414062 -59.875 38.703125 -59.492188 41.953125 -58.734375 C 45.210938 -57.984375 47.632812 -57.226562 49.21875 -56.46875 L 51.59375 -55.34375 L 45.015625 -42.1875 C 40.484375 -44.601562 36.175781 -45.8125 32.09375 -45.8125 C 29.820312 -45.8125 28.210938 -45.566406 27.265625 -45.078125 C 26.328125 -44.585938 25.859375 -43.660156 25.859375 -42.296875 C 25.859375 -41.992188 25.894531 -41.691406 25.96875 -41.390625 C 26.039062 -41.085938 26.191406 -40.800781 26.421875 -40.53125 C 26.648438 -40.269531 26.859375 -40.046875 27.046875 -39.859375 C 27.234375 -39.671875 27.550781 -39.460938 28 -39.234375 C 28.457031 -39.003906 28.816406 -38.832031 29.078125 -38.71875 C 29.347656 -38.613281 29.785156 -38.445312 30.390625 -38.21875 C 30.992188 -37.988281 31.445312 -37.816406 31.75 -37.703125 C 32.050781 -37.585938 32.5625 -37.414062 33.28125 -37.1875 C 34 -36.96875 34.546875 -36.820312 34.921875 -36.75 C 37.265625 -36.0625 39.304688 -35.300781 41.046875 -34.46875 C 42.785156 -33.644531 44.617188 -32.515625 46.546875 -31.078125 C 48.472656 -29.640625 49.96875 -27.820312 51.03125 -25.625 C 52.09375 -23.4375 52.625 -20.941406 52.625 -18.140625 C 52.625 -4.910156 43.4375 1.703125 25.0625 1.703125 C 20.90625 1.703125 16.953125 1.0625 13.203125 -0.21875 C 9.460938 -1.507812 6.765625 -2.796875 5.109375 -4.078125 L 2.609375 -6.125 L 10.78125 -19.84375 C 11.382812 -19.3125 12.175781 -18.6875 13.15625 -17.96875 C 14.132812 -17.25 15.910156 -16.265625 18.484375 -15.015625 C 21.054688 -13.773438 23.285156 -13.15625 25.171875 -13.15625 C 29.328125 -13.15625 31.40625 -14.550781 31.40625 -17.34375 C 31.40625 -18.632812 30.875 -19.640625 29.8125 -20.359375 C 28.757812 -21.078125 26.96875 -21.890625 24.4375 -22.796875 C 21.90625 -23.703125 19.921875 -24.535156 18.484375 -25.296875 C 14.859375 -27.179688 11.984375 -29.3125 9.859375 -31.6875 C 7.742188 -34.070312 6.6875 -37.234375 6.6875 -41.171875 C 6.6875 -47.066406 8.972656 -51.65625 13.546875 -54.9375 C 18.117188 -58.226562 24.300781 -59.875 32.09375 -59.875 Z M 32.09375 -59.875 "/></g></g></g></g></g><g transform="matrix(1, 0, 0, 1, 274, 294)"><g clip-path="url(#52a6bafafa)"><g fill="#ffffff" fill-opacity="1"><g transform="translate(0.485731, 102.846789)"><g><path d="M 6.796875 0 L 6.796875 -58.171875 L 26.875 -58.171875 L 26.875 -49.78125 L 27.09375 -49.78125 C 27.25 -50.082031 27.492188 -50.457031 27.828125 -50.90625 C 28.171875 -51.363281 28.910156 -52.160156 30.046875 -53.296875 C 31.179688 -54.429688 32.390625 -55.453125 33.671875 -56.359375 C 34.960938 -57.265625 36.628906 -58.078125 38.671875 -58.796875 C 40.710938 -59.515625 42.789062 -59.875 44.90625 -59.875 C 47.09375 -59.875 49.242188 -59.570312 51.359375 -58.96875 C 53.484375 -58.363281 55.035156 -57.757812 56.015625 -57.15625 L 57.609375 -56.234375 L 49.21875 -39.234375 C 46.71875 -41.347656 43.238281 -42.40625 38.78125 -42.40625 C 36.363281 -42.40625 34.285156 -41.875 32.546875 -40.8125 C 30.804688 -39.757812 29.578125 -38.476562 28.859375 -36.96875 C 28.140625 -35.457031 27.628906 -34.171875 27.328125 -33.109375 C 27.023438 -32.046875 26.875 -31.210938 26.875 -30.609375 L 26.875 0 Z M 6.796875 0 "/></g></g></g></g></g></svg>